<!-- Generated by IcoMoon.io -->
<svg version="1.1" xmlns="http://www.w3.org/2000/svg" width="14629" height="1024" viewBox="0 0 14629 1024">
<g id="icomoon-ignore">
</g>
<path fill="#000" d="M6386.347 450.685h-5524.475c-19.866 0-35.972 16.107-35.972 35.936s16.106 35.936 35.972 35.936h5524.475c19.846 0 35.938-16.106 35.938-35.936s-16.091-35.936-35.938-35.936z"></path>
<path fill="#000" d="M611.518 141.748c218.341 0 422.049 58.529 528.121 119.158 136.26 77.842 745.472 453.011 751.626 456.805 14.594 9.031 19.129 28.16 10.138 42.754-8.958 14.594-28.048 19.202-42.72 10.138-6.115-3.76-614.478-378.412-749.89-455.775-142.599-81.491-474.57-158.964-766.035-75.594-167.109 47.73-234.262 136.85-261.168 203.229-31.734 78.283-24.436 170.648 19.497 246.941 87.056 151.152 314.722 212.738 580.055 156.862 160.622-33.831 251.514-136.884 255.532-216.678 3.018-60.596-41.76-108.729-126.089-135.49l-7.924-2.433 16.14-60.038-8.919 29.78 10.542-29.264 9.065 2.764c112.011 35.567 173.709 107.66 169.214 197.772-6.159 123.104-134.31 238.504-304.772 274.364-292.092 61.44-545.963-11.717-646.656-186.641-53.443-92.77-62.104-205.405-23.257-301.307 32.103-79.168 110.46-184.985 301.711-239.607 93.432-26.722 190.991-37.742 285.789-37.742z"></path>
<path fill="#000" d="M1300.358 327.473c6.12 3.797 615.365 378.999 751.587 456.842 152.186 86.947 505.237 169.579 813.953 81.418 191.21-54.623 269.605-160.475 301.709-239.645 38.849-95.9 30.184-208.573-23.294-301.305-76.956-133.791-243.624-208.094-448.478-208.094-62.952 0-129.477 7.003-198.139 21.487-41.023 8.587-80.057 21.819-116.102 39.253-121.885 59.081-195.93 160.143-188.596 257.519 0.405 5.565 1.326 11.794 2.545 18.281 16.803-12.642 36.781-22.188 59.597-27.937-2.141-69.402 58.563-145.917 153.546-191.951 31.437-15.259 65.716-26.795 101.795-34.387 265.372-55.765 493.002 5.676 580.018 156.826 43.973 76.331 51.234 168.66 19.534 246.981-26.902 66.375-94.057 155.497-261.164 203.225-291.465 83.334-623.436 5.9-766.074-75.591-135.412-77.366-743.736-452.015-749.856-455.811-14.521-8.956-33.685-4.423-42.754 10.136-8.958 14.595-4.457 33.761 10.172 42.754z"></path>
<path fill="#000" d="M3073.843 327.473c6.12 3.797 615.365 378.999 751.587 456.842 152.181 86.947 505.237 169.579 813.948 81.418 191.215-54.623 269.629-160.475 301.714-239.645 38.863-95.9 30.184-208.573-23.308-301.305-76.946-133.791-243.61-208.094-448.497-208.094-62.917 0-129.443 7.003-198.11 21.487-41.019 8.587-80.052 21.819-116.097 39.253-121.885 59.081-195.93 160.143-188.596 257.519 0.405 5.565 1.326 11.794 2.54 18.281 16.808-12.642 36.786-22.188 59.597-27.937-2.136-69.402 58.568-145.917 153.546-191.951 31.442-15.259 65.716-26.795 101.8-34.387 265.372-55.765 492.997 5.676 580.018 156.826 43.949 76.331 51.215 168.66 19.519 246.981-26.892 66.375-94.042 155.497-261.154 203.225-291.465 83.334-623.436 5.9-766.069-75.591-135.412-77.366-743.736-452.015-749.856-455.811-14.521-8.956-33.69-4.423-42.754 10.136-8.958 14.595-4.462 33.761 10.172 42.754z"></path>
<path fill="#000" d="M921.849 499.020l-114.595-114.594-114.59 114.594 114.59 114.595 114.595-114.595z"></path>
<path fill="#000" d="M719.258 499.020l-114.59-114.594-114.595 114.594 114.595 114.595 114.59-114.595z"></path>
<path fill="#000" d="M8216.332 450.685h5524.48c19.846 0 35.938 16.107 35.938 35.936s-16.091 35.936-35.938 35.936h-5524.48c-19.846 0-35.938-16.106-35.938-35.936s16.091-35.936 35.938-35.936z"></path>
<path fill="#000" d="M13991.156 141.748c-218.307 0-422.034 58.529-528.091 119.158-136.29 77.842-745.472 453.011-751.665 456.805-14.58 9.031-19.115 28.16-10.094 42.754 8.923 14.594 28.038 19.202 42.715 10.138 6.095-3.76 614.449-378.412 749.861-455.775 142.629-81.491 474.6-158.964 766.050-75.594 167.107 47.73 234.252 136.85 261.169 203.229 31.744 78.283 24.43 170.648-19.505 246.941-87.040 151.152-314.709 212.738-580.072 156.862-160.622-33.831-251.514-136.884-255.512-216.678-3.023-60.596 41.74-108.729 126.098-135.49l7.899-2.433-16.14-60.038 8.923 29.78-10.533-29.264-9.070 2.764c-112.006 35.567-173.69 107.66-169.204 197.772 6.144 123.104 134.29 238.504 304.762 274.364 292.084 61.44 545.987-11.717 646.68-186.641 53.443-92.77 62.074-205.405 23.259-301.307-32.134-79.168-110.494-184.985-301.739-239.607-93.428-26.722-191-37.742-285.794-37.742z"></path>
<path fill="#000" d="M13302.296 327.473c-6.095 3.797-615.326 378.999-751.567 456.842-152.186 86.947-505.222 169.579-813.934 81.418-191.244-54.623-269.605-160.475-301.739-239.645-38.863-95.9-30.184-208.573 23.308-301.305 76.946-133.791 243.614-208.094 448.463-208.094 62.952 0 129.463 7.003 198.168 21.487 41.009 8.587 80.018 21.819 116.102 39.253 121.856 59.081 195.925 160.143 188.562 257.519-0.39 5.565-1.317 11.794-2.536 18.281-16.823-12.642-36.766-22.188-59.587-27.937 2.146-69.402-58.563-145.917-153.551-191.951-31.451-15.259-65.731-26.795-101.815-34.387-265.362-55.765-492.983 5.676-580.023 156.826-43.934 76.331-51.249 168.66-19.505 246.981 26.917 66.375 94.062 155.497 261.169 203.225 291.45 83.334 623.421 5.9 766.050-75.591 135.412-77.366 743.765-452.015 749.861-455.811 14.531-8.956 33.694-4.423 42.764 10.136 8.972 14.595 4.437 33.761-10.191 42.754z"></path>
<path fill="#000" d="M11528.875 327.473c-6.144 3.797-615.375 378.999-751.616 456.842-152.186 86.947-505.222 169.579-813.934 81.418-191.195-54.623-269.605-160.475-301.69-239.645-38.863-95.9-30.184-208.573 23.259-301.305 76.995-133.791 243.663-208.094 448.512-208.094 62.952 0 129.463 7.003 198.12 21.487 41.009 8.587 80.067 21.819 116.102 39.253 121.905 59.081 195.925 160.143 188.611 257.519-0.439 5.565-1.317 11.794-2.536 18.281-16.823-12.642-36.815-22.188-59.636-27.937 2.146-69.402-58.563-145.917-153.551-191.951-31.403-15.259-65.682-26.795-101.766-34.387-265.362-55.765-493.032 5.676-580.023 156.826-43.983 76.331-51.298 168.66-19.554 246.981 26.917 66.375 94.062 155.497 261.169 203.225 291.499 83.334 623.47 5.9 766.098-75.591 135.363-77.366 743.717-452.015 749.861-455.811 14.482-8.956 33.646-4.423 42.715 10.136 8.972 14.595 4.486 33.761-10.142 42.754z"></path>
<path fill="#000" d="M13795.426 613.595l114.59-114.595-114.59-114.594-114.639 114.594 114.639 114.595z"></path>
<path fill="#000" d="M13998.031 613.595l114.59-114.595-114.59-114.594-114.639 114.594 114.639 114.595z"></path>
<path fill="#000" d="M7253.236 29.593l-415.646 415.636c-29.696 29.707-29.696 77.84 0 107.551l415.646 415.632c29.696 29.711 77.824 29.711 107.52 0l415.646-415.632c29.696-29.711 29.696-77.844 0-107.551l-415.646-415.636c-29.696-29.707-77.824-29.707-107.52 0z"></path>
</svg>
