<!-- sprite.svg -->
<svg xmlns="http://www.w3.org/2000/svg">
  <defs>
    <!-- ================= HEADER ================= -->
    <symbol id="logo-icon" viewBox="0 0 81 63">
      <path fill-rule="evenodd" clip-rule="evenodd" d="M59.1078 3.15353C58.5955 2.47315 57.6759 1.25191 56.9915 1.14133... (truncated for brevity, using original full path in final output)" />
      <path fill-rule="evenodd" clip-rule="evenodd" d="M59.1078 3.15353C58.5955 2.47315 57.6759 1.25191 56.9915 1.14133C55.2942 4.66973 54.8131 8.89709 56.1042 12.6297C56.7247 14.4238 57.6966 15.9238 58.6928 17.4613C58.9835 17.9098 59.2761 18.3615 59.5628 18.8247C58.6468 23.3012 56.0478 27.3319 53.1612 30.8069C52.3916 31.7341 51.5782 32.7084 50.6816 33.5131C52.2402 30.6939 52.6397 27.4847 51.7473 24.3702C51.0425 21.911 49.4637 19.7289 47.1894 18.5018C45.1472 17.3998 42.5987 17.2179 40.3925 17.9056C37.864 18.6934 35.8727 20.4875 34.6552 22.82C34.2614 23.5743 33.9673 24.362 33.7362 25.1797C32.545 22.7342 30.8251 20.7228 28.178 19.8225C26.0975 19.1149 23.7454 19.1984 21.7652 20.1753C19.9113 21.1115 18.5057 22.7464 17.8582 24.7197C16.9631 27.3795 17.3749 30.2384 18.6206 32.7144C20.441 36.3323 23.9725 39.4466 27.2146 42.3058C28.0748 43.0644 28.9146 43.805 29.6967 44.5323L33.0975 47.7041C33.2599 47.8556 33.4229 48.0139 33.5872 48.1735C34.0805 48.6528 34.5878 49.1457 35.1437 49.5141C35.3897 49.4534 35.594 49.2659 35.784 49.0916C35.8096 49.0681 35.835 49.0448 35.8601 49.0221C37.5919 47.4608 39.2638 45.8214 40.9334 44.1842C41.6904 43.4419 42.447 42.7001 43.2085 41.9661C44.1301 41.0776 45.0635 40.1999 45.9969 39.3223C47.3138 38.084 48.6311 36.8454 49.9162 35.5755C50.8902 34.6133 51.8348 33.6216 52.7491 32.6015C54.4069 30.7567 55.8973 28.7681 57.2035 26.6593C57.6549 25.9145 58.0335 25.1424 58.4121 24.3704C58.6924 23.7988 58.9728 23.2271 59.2827 22.6665C60.2474 20.9183 61.917 19.4828 63.5143 18.3319C68.1058 19.2348 72.4989 19.5993 76.5723 16.8516C77.4092 16.2868 79.8778 14.4025 80.1815 13.4261C80.094 13.197 79.9771 13.1396 79.7567 13.035C79.2828 12.8099 78.7497 12.6654 78.2359 12.5262C78.1543 12.504 78.0732 12.4821 77.9929 12.4599C75.1786 11.683 72.186 11.5555 69.4305 12.6344C67.6583 13.3284 65.7869 14.4853 64.5034 15.9052C64.2875 16.1438 64.0884 16.4018 63.8893 16.6598C63.6198 17.0089 63.3501 17.3582 63.0382 17.6607C62.5303 18.1534 61.9841 18.6157 61.4371 19.0786C60.9615 19.4811 60.4852 19.8842 60.033 20.3083C60.1735 19.2359 60.4994 18.5338 60.8512 17.7762C61.0551 17.3369 61.2676 16.879 61.4578 16.3195C63.0373 11.6747 62.2678 7.25594 59.2776 3.37755C59.2281 3.31321 59.171 3.23741 59.1078 3.15353ZM42.6604 18.5676C42.8598 18.5531 43.0583 18.5534 43.2576 18.5563C45.2948 18.5923 47.2301 19.4475 48.6289 20.9287C50.3943 22.7722 51.2405 25.4169 51.1682 27.9437C51.1093 29.9727 50.4599 31.9084 49.4086 33.6342C47.8454 36.1977 45.5235 38.3485 43.286 40.4212C42.7659 40.9029 42.2501 41.3808 41.7495 41.8585L35.1686 48.176C33.0761 46.1548 30.908 44.1974 28.7448 42.2444L28.7373 42.2377C28.1607 41.7171 27.5828 41.1953 27.0084 40.6742L26.9906 40.6586C23.9646 38.0058 20.397 34.8782 19.0058 31.0074C18.2171 28.8129 18.1843 26.3776 19.1952 24.2478C19.9616 22.6096 21.3606 21.353 23.0713 20.7661C24.9199 20.132 26.9391 20.344 28.6794 21.2016C30.5739 22.1351 32.0566 23.8475 32.8388 25.7979C32.9786 26.1464 33.0868 26.5068 33.195 26.867C33.2674 27.1079 33.3398 27.3488 33.4216 27.5862C33.6274 27.7519 33.6848 27.7667 33.9468 27.814C34.1172 27.7023 34.5179 26.4427 34.8628 25.3585C35.0704 24.7059 35.258 24.1164 35.363 23.8789C35.7371 23.0201 36.2332 22.2198 36.8358 21.5026C38.3599 19.6942 40.3289 18.7714 42.6604 18.5676ZM48.4119 22.0362C45.5261 22.0737 42.6403 22.0821 39.7545 22.0612C39.1107 23.813 38.3012 25.5342 37.4984 27.2412C37.2023 27.8708 36.9065 28.4997 36.6208 29.1265C34.5775 33.6107 32.5107 38.0836 30.4204 42.5457C30.8601 42.93 31.2941 43.3203 31.7225 43.7173C32.8911 40.9454 34.1784 38.2227 35.4656 35.5004C36.7882 32.7031 38.1108 29.9057 39.3045 27.0551L39.4424 26.8358C39.569 26.9664 39.5738 27.1654 39.5783 27.3495C39.5789 27.3746 39.5795 27.3994 39.5804 27.4237C39.6217 28.5196 39.6074 29.6261 39.5931 30.7299C39.5859 31.2881 39.5787 31.8457 39.5787 32.4008L39.5964 42.5801C40.0717 42.127 40.5456 41.6674 41.0202 41.2069C42.2873 39.9777 43.5614 38.7418 44.8928 37.6025C44.9272 35.2988 44.9348 32.9948 44.9155 30.6911C44.9139 30.3385 44.906 29.9795 44.8981 29.6175C44.8719 28.4206 44.8449 27.1898 45.0425 26.0394C45.172 25.2829 45.4033 24.4917 45.9635 23.94C46.7617 23.1526 47.9367 22.9934 49.0066 22.9401C48.9449 22.8461 48.8837 22.7516 48.8226 22.6571C48.6876 22.4487 48.5525 22.2399 48.4119 22.0362ZM60.5269 6.92726C59.9776 5.67049 58.4258 3.04366 57.276 2.34051C55.8537 6.60462 55.5635 10.087 57.6099 14.2145C58.2012 15.407 58.9263 16.5164 59.6555 17.6267C59.8254 14.0755 59.4528 10.8822 58.5604 7.44917L58.716 7.29121C59.1596 7.54403 59.5503 8.98455 59.721 9.614C59.734 9.66177 59.7461 9.70636 59.7564 9.74385C60.394 12.0543 60.5286 14.3055 60.5159 16.6845C61.7599 13.4883 61.9147 10.1056 60.5269 6.92726ZM72.6866 12.6749C74.9104 12.5243 77.0485 12.9269 79.1757 13.5473C78.2732 14.5721 77.1789 15.5083 76.0459 16.2684C72.5419 18.6195 68.6073 18.4996 64.6263 17.7118C65.5457 17.2063 66.5382 16.8092 67.513 16.4234C68.9698 15.8775 70.4795 15.4782 71.9935 15.1281C72.2257 15.0745 72.4646 15.0364 72.7039 14.9982C73.0473 14.9434 73.3913 14.8885 73.7169 14.7875C73.8717 14.7394 73.9903 14.6871 74.103 14.5659C74.1698 14.4944 74.1688 14.4878 74.1599 14.4278C74.1574 14.4108 74.1542 14.3894 74.1518 14.3609C74.1474 14.3582 74.143 14.3554 74.1388 14.3526C74.1354 14.3504 74.1321 14.3481 74.1288 14.3459C74.1146 14.3362 74.1004 14.3266 74.0845 14.3198C73.8693 14.2268 73.4671 14.2779 73.1552 14.3176C73.0686 14.3286 72.9889 14.3387 72.9221 14.3447C70.0977 14.5948 67.5643 15.5199 64.9653 16.5821C67.0823 14.3963 69.6519 13.0135 72.6866 12.6749Z" fill="#B09A0C" />
      <path fill-rule="evenodd" clip-rule="evenodd" d="M48.4129 22.0362C45.5271 22.0737 42.6413 22.082 39.7555 22.0611C39.1117 23.813 38.3024 25.5337 37.4996 27.2406C37.2033 27.8706 36.9076 28.4993 36.6218 29.1264C34.5785 33.6106 32.5117 38.0836 30.4214 42.5456C30.8611 42.93 31.2951 43.3202 31.7235 43.7172C32.8921 40.9454 34.1793 38.2229 35.4664 35.5006C36.7891 32.7031 38.1117 29.9057 39.3055 27.0551L39.4434 26.8357C39.5699 26.9664 39.5747 27.1648 39.5792 27.349C39.5798 27.3742 39.5804 27.3992 39.5814 27.4236C39.6227 28.5195 39.6084 29.626 39.5941 30.7298C39.5869 31.2881 39.5797 31.8457 39.5797 32.4008L39.5973 42.5801C40.0728 42.1269 40.5465 41.6673 41.0212 41.2068C42.2882 39.9777 43.5624 38.7417 44.8937 37.6024C44.9282 35.2987 44.9358 32.9947 44.9164 30.6911C44.9149 30.3384 44.907 29.9795 44.8991 29.6174C44.8728 28.4206 44.8458 27.1897 45.0434 26.0394C45.173 25.2828 45.4043 24.4917 45.9644 23.9399C46.7627 23.1526 47.9377 22.9933 49.0075 22.94C48.9459 22.846 48.8847 22.7515 48.8235 22.657C48.6886 22.4486 48.5535 22.2399 48.4129 22.0362Z" fill="white" />
      <path d="M39.7536 22.0611C42.6394 22.082 45.5252 22.0737 48.411 22.0362C48.6154 22.3323 48.808 22.6387 49.0057 22.94C47.9358 22.9933 46.7608 23.1526 45.9626 23.9399C45.4024 24.4917 45.1711 25.2828 45.0416 26.0394C44.7842 27.5377 44.9078 29.1726 44.9146 30.6911C44.9339 32.9947 44.9263 35.2987 44.8919 37.6025C43.0616 39.1686 41.3399 40.9172 39.5955 42.5801L39.5778 32.4008C39.5778 30.7479 39.6417 29.0737 39.5795 27.4236C39.5719 27.2204 39.5854 26.9843 39.4415 26.8357L39.3036 27.0551C36.9481 32.6798 34.0911 38.097 31.7216 43.7172C31.2932 43.3202 30.8592 42.93 30.4195 42.5456C32.5098 38.0836 34.5766 33.6106 36.6199 29.1265C37.6804 26.8 38.8721 24.4597 39.7536 22.0611Z" fill="currentColor" />
      <path d="M60.4402 22.0512C61.8675 22.1061 71.5587 21.959 71.9035 22.1326C71.9254 22.2462 71.9565 22.3729 71.9582 22.49C71.9607 22.8182 71.933 22.8924 71.6049 22.9259C69.3045 23.1607 67.7737 23.5773 65.9452 25.1098C64.0468 26.7002 62.3226 28.5853 60.5798 30.3426L52.8156 38.1155C56.6031 42.353 60.2846 46.6779 64.0384 50.944C66.0856 53.2713 68.7788 56.835 71.2618 58.4752C72.0717 59.011 73.023 59.4954 73.9701 59.7309C74.6808 59.9076 75.6935 59.9185 76.3235 60.2844C76.3252 60.5342 76.3807 60.7327 76.2284 60.9379C74.8776 61.0489 73.468 60.9522 72.1096 60.9329C69.7797 60.8832 67.4482 60.8723 65.1175 60.8992C64.2891 60.9093 60.5428 61.1129 60.0297 60.9556L59.9658 60.6578C60.2173 59.9034 61.5067 60.059 62.1316 59.6064C62.4454 59.3793 62.6262 59.0774 62.6615 58.6896C62.7137 58.1278 62.4992 57.5878 62.2233 57.1109C61.5176 55.8871 60.4452 54.7979 59.5284 53.7221L55.1648 48.6108C53.1824 46.312 51.2209 43.9847 49.1737 41.7432C47.764 43.1647 46.3072 44.5323 44.9076 45.9672L44.9118 52.5622C44.9135 53.8517 44.8446 55.2025 44.985 56.4843C45.2895 59.2515 46.4754 59.8815 49.0904 60.08C49.5412 60.1145 49.9896 60.0977 50.3588 60.3895C50.453 60.6082 50.4665 60.6553 50.4421 60.8908C50.2108 61.0044 49.9223 61.0094 49.6691 61.0128C46.4569 61.0565 43.2322 60.9606 40.0175 60.9766C38.6423 60.9842 35.575 61.1625 34.3418 60.9615C34.3186 60.853 34.2876 60.7352 34.2851 60.6233C34.2838 60.5653 34.2944 60.2692 34.3255 60.2272C34.3678 60.17 37.5498 60.1195 38.5817 59.0639C39.0351 58.6005 39.2689 57.9251 39.3909 57.3002C39.6827 55.8047 39.57 54.1814 39.5633 52.6649C39.5498 50.7312 39.5482 48.7975 39.5599 46.8638C41.2573 45.1101 43.0993 43.4607 44.8799 41.7903L44.9093 43.7879C46.372 42.247 47.9608 40.7961 49.4731 39.2998L57.3004 31.4484C58.8244 29.9154 60.5218 28.4028 61.8987 26.7409C62.2637 26.2995 62.7179 25.7183 62.7961 25.1411C62.86 24.665 62.8054 24.1893 62.4908 23.8093C61.9441 23.149 61.013 23.057 60.2215 22.9628L60.4402 22.0512Z" fill="currentColor" />
      <path d="M0.650024 22.0767C4.13873 22.0993 7.62752 22.0935 11.1161 22.0597C12.5165 25.4202 14.1045 28.7141 15.6043 32.0317L25.3659 53.5766C26.6064 50.8405 27.884 48.1212 29.1984 45.4196C29.6058 45.7704 29.9906 46.1539 30.3823 46.5223C28.842 49.827 27.323 53.1417 25.8256 56.4658C25.2356 57.7585 24.4824 59.7982 23.7183 60.9446C23.5073 60.9833 23.3077 61.0422 23.0969 60.9774C21.958 58.9756 20.9372 56.3371 19.962 54.1982L13.8298 40.7263C11.763 36.4846 9.81715 32.1603 7.87472 27.8603C8.00803 34.344 7.89062 40.8592 7.89222 47.3457C7.89281 50.0608 7.64065 54.6574 8.22681 57.1563C8.70564 59.1985 10.07 59.9286 12.0363 60.0732C12.5318 60.1102 13.1209 60.0783 13.554 60.3508C13.677 60.5712 13.6846 60.6141 13.6803 60.8672C13.6579 60.8807 13.6369 60.8975 13.613 60.9093C13.4002 61.0127 13.1089 61.0127 12.8749 61.0169C10.2533 61.0666 7.61566 61.0043 4.99244 61.006C4.02342 61.006 1.58373 61.1591 0.754741 60.9463C0.677444 60.7705 0.664913 60.699 0.704277 60.5106C1.15082 59.9168 3.46602 60.0379 4.41058 59.4584C5.31324 58.9041 5.78039 58.0184 6.02447 57.0167C6.54705 54.8719 6.31919 52.3705 6.31322 50.1651L6.29438 41.0249L6.28883 31.8818C6.28749 30.189 6.37101 28.4511 6.23467 26.7665C6.17537 26.0338 6.02094 25.3682 5.62386 24.7358C4.4671 22.8943 2.57353 23.2559 0.776692 22.8421C0.616799 22.6169 0.659024 22.349 0.650024 22.0767Z" fill="currentColor" />
    </symbol>

    <symbol id="burgermenu-icon" viewBox="0 0 24 24">
      <path d="M3.70234 18.2212C3.46184 18.2212 3.25975 18.139 3.09609 17.9745C2.93242 17.81 2.85059 17.6049 2.85059 17.3592C2.85059 17.1176 2.93242 16.9159 3.09609 16.7542C3.25975 16.5927 3.46184 16.512 3.70234 16.512H20.2978C20.5383 16.512 20.7414 16.5942 20.9071 16.7587C21.0728 16.9232 21.1556 17.1263 21.1556 17.368C21.1556 17.6137 21.0728 17.8172 20.9071 17.9787C20.7414 18.1404 20.5383 18.2212 20.2978 18.2212H3.70234ZM3.70234 12.8517C3.46184 12.8517 3.25975 12.7694 3.09609 12.6047C2.93242 12.4402 2.85059 12.2372 2.85059 11.9955C2.85059 11.754 2.93242 11.5524 3.09609 11.3907C3.25975 11.2291 3.46184 11.1482 3.70234 11.1482H20.2978C20.5383 11.1482 20.7414 11.2306 20.9071 11.3952C21.0728 11.5597 21.1556 11.7628 21.1556 12.0045C21.1556 12.246 21.0728 12.4476 20.9071 12.6092C20.7414 12.7709 20.5383 12.8517 20.2978 12.8517H3.70234ZM3.70234 7.488C3.46184 7.488 3.25975 7.40575 3.09609 7.24125C2.93242 7.07675 2.85059 6.87166 2.85059 6.626C2.85059 6.38433 2.93242 6.18275 3.09609 6.02125C3.25975 5.85958 3.46184 5.77875 3.70234 5.77875H20.2978C20.5383 5.77875 20.7414 5.861 20.9071 6.0255C21.0728 6.19 21.1556 6.39308 21.1556 6.63475C21.1556 6.88041 21.0728 7.08408 20.9071 7.24575C20.7414 7.40725 20.5383 7.488 20.2978 7.488H3.70234Z" fill="currentColor" />
    </symbol>

    <symbol id="close-icon" viewBox="0 0 24 24">
      <path d="M17.5996 5.925C17.7639 5.925 17.8659 5.97351 17.9463 6.05391C18.0265 6.13422 18.0751 6.2357 18.0752 6.39961C18.0752 6.56382 18.0266 6.6659 17.9463 6.74629L12.6924 12.0002L13.0459 12.3537L17.9463 17.2531C18.0267 17.3335 18.0752 17.4357 18.0752 17.5998C18.0752 17.7641 18.0267 17.8661 17.9463 17.9465C17.8659 18.0269 17.7639 18.0754 17.5996 18.0754C17.4355 18.0754 17.3333 18.0269 17.2529 17.9465L12.3535 13.0461L12 12.6926L6.74609 17.9465C6.66571 18.0268 6.56362 18.0754 6.39941 18.0754C6.23551 18.0753 6.13402 18.0267 6.05371 17.9465C5.97331 17.8661 5.9248 17.7641 5.9248 17.5998C5.92484 17.4357 5.97334 17.3335 6.05371 17.2531L11.3066 12.0002L10.9531 11.6467L6.05371 6.74629C5.97331 6.66589 5.9248 6.56388 5.9248 6.39961C5.92488 6.23557 5.97337 6.13425 6.05371 6.05391C6.13405 5.97357 6.23537 5.92508 6.39941 5.925C6.56368 5.925 6.66569 5.97351 6.74609 6.05391L11.6465 10.9533L12 11.3068L17.2529 6.05391C17.3333 5.97354 17.4355 5.92504 17.5996 5.925Z" fill="currentColor" stroke="currentColor" />
    </symbol>

    <!-- ================= DECORATION ================= -->
    <symbol id="decore" viewBox="0 0 300 21">
      <clipPath id="clip_decore">
        <rect width="299.5" height="20.3174" fill="white" transform="matrix(1 0 0 -1 0 20.3174)" />
      </clipPath>
      <g clip-path="url(#clip_decore)">
        <path d="M130.97 9.24256H17.6752C17.2678 9.24256 16.9375 9.57287 16.9375 9.97952C16.9375 10.3862 17.2678 10.7165 17.6752 10.7165H130.97C131.377 10.7165 131.707 10.3862 131.707 9.97952C131.707 9.57287 131.377 9.24256 130.97 9.24256Z" fill="currentColor" />
        <path d="M12.5408 2.90695C17.0185 2.90695 21.1961 4.10725 23.3715 5.35063C26.1659 6.947 38.6594 14.6409 38.7856 14.7187C39.0849 14.9039 39.1779 15.2962 38.9935 15.5955C38.8098 15.8948 38.4183 15.9893 38.1174 15.8034C37.992 15.7263 25.5158 8.04299 22.7388 6.45645C19.8144 4.78525 13.0064 3.19644 7.0291 4.90619C3.60205 5.88502 2.22488 7.71268 1.67311 9.07398C1.02232 10.6794 1.17198 12.5736 2.07296 14.1382C3.85829 17.238 8.52721 18.501 13.9686 17.3551C17.2626 16.6613 19.1266 14.5479 19.209 12.9115C19.2709 11.6688 18.3526 10.6817 16.6232 10.1329L16.4607 10.083L16.7917 8.85176L16.6088 9.46249L16.825 8.86234L17.0109 8.91903C19.308 9.64843 20.5733 11.1269 20.4811 12.9749C20.3548 15.4995 17.7267 17.8661 14.2309 18.6015C8.24074 19.8615 3.03441 18.3612 0.969408 14.7739C-0.126583 12.8714 -0.304209 10.5615 0.492463 8.59476C1.15081 6.97119 2.75776 4.80113 6.6799 3.68095C8.59599 3.13295 10.5967 2.90695 12.5408 2.90695Z" fill="currentColor" />
        <path d="M26.6673 6.71573C26.7927 6.79359 39.287 14.4882 42.0807 16.0846C45.2016 17.8676 52.4419 19.5623 58.773 17.7542C62.6944 16.6341 64.3021 14.4633 64.9604 12.8397C65.7571 10.8729 65.5795 8.56229 64.4827 6.66056C62.9045 3.9168 59.4865 2.393 55.2855 2.393C53.9945 2.393 52.6301 2.53661 51.222 2.83366C50.3807 3.00977 49.5803 3.28113 48.841 3.63865C46.3414 4.85028 44.8229 6.92284 44.9733 8.91981C44.9816 9.03394 45.0005 9.16168 45.0255 9.29471C45.3702 9.03545 45.7798 8.83969 46.2477 8.72178C46.2039 7.2985 47.4488 5.72934 49.3966 4.78528C50.0413 4.47235 50.7443 4.23577 51.4843 4.08007C56.9264 2.93646 61.5946 4.19647 63.3792 7.29623C64.2809 8.86161 64.4298 10.755 63.7798 12.3612C63.228 13.7225 61.8508 15.5502 58.4238 16.529C52.4465 18.238 45.6385 16.6499 42.7133 14.9787C39.9363 13.3922 27.4609 5.70893 27.3354 5.63108C27.0376 5.44741 26.6446 5.54038 26.4586 5.83894C26.275 6.13826 26.3672 6.53131 26.6673 6.71573Z" fill="currentColor" />
        <path d="M63.0379 6.71573C63.1633 6.79359 75.6576 14.4882 78.4513 16.0846C81.5722 17.8676 88.8125 19.5623 95.1436 17.7542C99.065 16.6341 100.673 14.4633 101.331 12.8397C102.128 10.8729 101.95 8.56229 100.853 6.66056C99.2751 3.9168 95.8571 2.393 91.6553 2.393C90.3651 2.393 89.0008 2.53661 87.5926 2.83366C86.7513 3.00977 85.9509 3.28113 85.2117 3.63865C82.712 4.85028 81.1935 6.92284 81.3439 8.91981C81.3523 9.03394 81.3711 9.16168 81.3961 9.29471C81.7408 9.03545 82.1504 8.83969 82.6183 8.72178C82.5745 7.2985 83.8194 5.72934 85.7672 4.78528C86.4119 4.47235 87.1149 4.23577 87.8549 4.08007C93.297 2.93646 97.9652 4.19647 99.7498 7.29623C100.652 8.86161 100.8 10.755 100.15 12.3612C99.5986 13.7225 98.2214 15.5502 94.7944 16.529C88.8171 18.238 82.0091 16.6499 79.0839 14.9787C76.3069 13.3922 63.8315 5.70893 63.706 5.63108C63.4082 5.44741 63.0152 5.54038 62.8293 5.83894C62.6456 6.13826 62.7378 6.53131 63.0379 6.71573Z" fill="currentColor" />
        <path d="M18.9048 10.2338L16.5547 7.88371L14.2046 10.2338L16.5547 12.5838L18.9048 10.2338Z" fill="currentColor" />
        <path d="M14.7505 10.2338L12.4004 7.88371L10.0503 10.2338L12.4004 12.5838L14.7505 10.2338Z" fill="currentColor" />
        <path d="M168.498 9.24256H281.793C282.201 9.24256 282.531 9.57287 282.531 9.97952C282.531 10.3862 282.201 10.7165 281.793 10.7165H168.498C168.092 10.7165 167.761 10.3862 167.761 9.97952C167.761 9.57287 168.092 9.24256 168.498 9.24256Z" fill="currentColor" />
        <path d="M286.928 2.90695C282.451 2.90695 278.273 4.10725 276.098 5.35063C273.303 6.947 260.81 14.6409 260.683 14.7187C260.384 14.9039 260.291 15.2962 260.476 15.5955C260.659 15.8948 261.051 15.9893 261.352 15.8034C261.477 15.7263 273.953 8.04299 276.73 6.45645C279.655 4.78525 286.463 3.19644 292.44 4.90619C295.867 5.88502 297.244 7.71268 297.796 9.07398C298.447 10.6794 298.297 12.5736 297.396 14.1382C295.611 17.238 290.942 18.501 285.5 17.3551C282.206 16.6613 280.343 14.5479 280.26 12.9115C280.198 11.6688 281.117 10.6817 282.846 10.1329L283.008 10.083L282.677 8.85176L282.86 9.46249L282.644 8.86234L282.458 8.91903C280.161 9.64843 278.896 11.1269 278.988 12.9749C279.114 15.4995 281.742 17.8661 285.238 18.6015C291.228 19.8615 296.435 18.3612 298.5 14.7739C299.596 12.8714 299.773 10.5615 298.977 8.59476C298.318 6.97119 296.711 4.80113 292.789 3.68095C290.873 3.13295 288.872 2.90695 286.928 2.90695Z" fill="currentColor" />
        <path d="M272.801 6.71573C272.676 6.79359 260.181 14.4882 257.388 16.0846C254.267 17.8676 247.027 19.5623 240.695 17.7542C236.774 16.6341 235.166 14.4633 234.508 12.8397C233.711 10.8729 233.889 8.56229 234.986 6.66056C236.564 3.9168 239.982 2.393 244.183 2.393C245.474 2.393 246.838 2.53661 248.246 2.83366C249.088 3.00977 249.888 3.28113 250.627 3.63865C253.127 4.85028 254.646 6.92284 254.495 8.91981C254.487 9.03394 254.468 9.16168 254.443 9.29471C254.098 9.03545 253.689 8.83969 253.221 8.72178C253.265 7.2985 252.02 5.72934 250.072 4.78528C249.427 4.47235 248.724 4.23577 247.984 4.08007C242.542 2.93646 237.874 4.19647 236.089 7.29623C235.188 8.86161 235.038 10.755 235.689 12.3612C236.24 13.7225 237.618 15.5502 241.045 16.529C247.022 18.238 253.83 16.6499 256.755 14.9787C259.532 13.3922 272.008 5.70893 272.133 5.63108C272.431 5.44741 272.824 5.54038 273.01 5.83894C273.193 6.13826 273.101 6.53131 272.801 6.71573Z" fill="currentColor" />
        <path d="M236.432 6.71573C236.306 6.79359 223.812 14.4882 221.018 16.0846C217.897 17.8676 210.657 19.5623 204.326 17.7542C200.404 16.6341 198.797 14.4633 198.138 12.8397C197.342 10.8729 197.519 8.56229 198.616 6.66056C200.194 3.9168 203.612 2.393 207.813 2.393C209.104 2.393 210.469 2.53661 211.877 2.83366C212.718 3.00977 213.519 3.28113 214.258 3.63865C216.757 4.85028 218.276 6.92284 218.125 8.91981C218.117 9.03394 218.098 9.16168 218.073 9.29471C217.729 9.03545 217.319 8.83969 216.851 8.72178C216.895 7.2985 215.65 5.72934 213.702 4.78528C213.057 4.47235 212.355 4.23577 211.615 4.08007C206.172 2.93646 201.504 4.19647 199.72 7.29623C198.818 8.86161 198.668 10.755 199.319 12.3612C199.871 13.7225 201.248 15.5502 204.675 16.529C210.652 18.238 217.46 16.6499 220.386 14.9787C223.162 13.3922 235.638 5.70893 235.763 5.63108C236.061 5.44741 236.454 5.54038 236.64 5.83894C236.824 6.13826 236.732 6.53131 236.432 6.71573Z" fill="currentColor" />
        <path d="M282.914 12.5835L285.264 10.2334L282.914 7.88335L280.564 10.2334L282.914 12.5835Z" fill="currentColor" />
        <path d="M287.068 12.5835L289.418 10.2334L287.068 7.88335L284.718 10.2334L287.068 12.5835Z" fill="currentColor" />
        <path d="M148.748 0.606901L140.224 9.13068C139.615 9.7399 139.615 10.7271 140.224 11.3363L148.748 19.8601C149.357 20.4693 150.344 20.4693 150.953 19.8601L159.477 11.3363C160.086 10.7271 160.086 9.7399 159.477 9.13068L150.953 0.606901C150.344 -0.00231934 149.357 -0.00231934 148.748 0.606901Z" fill="currentColor" />
      </g>
    </symbol>

    <!-- ================= BENEFITS (Photography Packages) ================= -->
    <symbol id="glasses" viewBox="0 0 100 100">
      <clipPath id="clip_glasses">
        <rect width="100" height="100" fill="white" />
      </clipPath>
      <g clip-path="url(#clip_glasses)">
        <path d="M35.7571 40.8087C38.1424 39.3999 40.2001 39.3268 42.0793 39.8898L45.51 18.0013L27.7843 15.3359L24.7388 34.7807C25.4956 34.4572 26.2426 34.2213 26.838 34.0344C32.588 32.725 30.7578 44.4036 35.7571 40.8087Z" stroke="currentColor" stroke-width="1.18595" stroke-miterlimit="10" />
        <path d="M41.3848 44.3305L42.0792 39.891C40.2 39.3268 38.1436 39.4011 35.757 40.8098C30.7589 44.4048 32.5892 32.725 26.8392 34.0343C26.2425 34.2224 25.4967 34.4584 24.7399 34.7806L23.6604 41.6639C22.9659 46.1035 25.7951 50.2698 30.1012 51.4486L26.5543 74.0846C22.9415 73.657 20.0707 73.9097 19.9448 74.7195C19.8054 75.6096 23.0197 76.8315 27.1253 77.4484C31.2296 78.0665 34.6701 77.8461 34.8095 76.9561C34.9366 76.1463 32.2762 75.0609 28.6988 74.4069L32.2444 51.772C36.7143 51.9122 40.6891 48.77 41.3848 44.3305Z" stroke="currentColor" stroke-width="1.18595" stroke-miterlimit="10" />
        <path d="M61.3025 47.7566C63.0448 45.6291 64.9484 44.8625 66.9119 44.7558L62.4127 23.0542L44.8398 26.5509L48.8378 45.8304C49.4345 45.271 50.0519 44.7954 50.5434 44.4192C55.4779 41.2435 57.8792 52.8227 61.3025 47.7566Z" stroke="currentColor" stroke-width="1.18595" stroke-miterlimit="10" />
        <path d="M67.8241 49.157L66.912 44.7558C64.9484 44.8624 63.0448 45.6291 61.3026 47.7566C57.8792 52.8226 55.478 41.2447 50.5435 44.4192C50.052 44.7953 49.4345 45.2709 48.8379 45.8303L50.2525 52.6549C51.1645 57.0561 55.2885 60.009 59.7462 59.658L64.3983 82.0999C60.8575 82.9217 58.2533 84.1292 58.4208 84.933C58.603 85.8147 62.0496 85.8722 66.1197 85.0636C70.1911 84.2526 73.3418 82.881 73.1572 81.9993C72.9921 81.1955 70.1128 81.0781 66.5256 81.6759L61.8723 59.2339C66.116 57.8539 68.7374 53.5581 67.8241 49.157Z" stroke="currentColor" stroke-width="1.18595" stroke-miterlimit="10" />
        <path d="M66.9121 80.769C67.8939 80.2467 68.7717 79.5388 69.487 78.6715L83.7098 61.4633" stroke="currentColor" stroke-width="1.18595" stroke-miterlimit="10" stroke-linecap="round" stroke-linejoin="round" />
        <path d="M70.6777 77.7622C70.6777 77.7622 78.0184 70.5483 87.5157 76.3595C87.5157 76.3595 79.1102 83.105 70.6777 77.7622Z" stroke="currentColor" stroke-width="1.18595" stroke-miterlimit="10" stroke-linecap="round" stroke-linejoin="round" />
        <path d="M83.0825 62.1353C83.0825 62.1353 89.9353 54.4734 99.7946 59.676C99.7946 59.676 91.8488 66.9366 83.0825 62.1353Z" stroke="currentColor" stroke-width="1.18595" stroke-miterlimit="10" stroke-linecap="round" stroke-linejoin="round" />
        <path d="M74.772 71.1222C74.772 71.1222 66.3799 65.1074 70.8034 55.0269C70.8034 55.0269 78.8825 62.1449 74.772 71.1222Z" stroke="currentColor" stroke-width="1.18595" stroke-miterlimit="10" stroke-linecap="round" stroke-linejoin="round" />
        <path d="M21.6126 75.5283C20.9683 75.1845 20.3912 74.7185 19.9192 74.1495L10.5723 62.8386" stroke="currentColor" stroke-width="0.782725" stroke-miterlimit="10" stroke-linecap="round" stroke-linejoin="round" />
        <path d="M19.138 73.5505C19.138 73.5505 14.3135 68.8091 8.0708 72.6293C8.0708 72.6293 13.5958 77.0628 19.138 73.5505Z" stroke="currentColor" stroke-width="0.782725" stroke-miterlimit="10" stroke-linecap="round" stroke-linejoin="round" />
        <path d="M10.9841 63.2805C10.9841 63.2805 6.47992 58.2445 0 61.6633C0 61.6633 5.22184 66.4359 10.9841 63.2805Z" stroke="currentColor" stroke-width="0.782725" stroke-miterlimit="10" stroke-linecap="round" stroke-linejoin="round" />
        <path d="M16.447 69.1875C16.447 69.1875 21.9635 65.2344 19.0561 58.6086C19.0561 58.6086 13.745 63.2865 16.447 69.1875Z" stroke="currentColor" stroke-width="0.782725" stroke-miterlimit="10" stroke-linecap="round" stroke-linejoin="round" />
      </g>
    </symbol>

    <symbol id="camera" viewBox="0 0 100 100">
      <clipPath id="clip_camera">
        <rect width="100" height="100" fill="white" />
      </clipPath>
      <g clip-path="url(#clip_camera)">
        <path d="M54.7187 39.4121H63.3418V43.8827H54.7187V39.4121Z" stroke="currentColor" stroke-width="1.1827" stroke-miterlimit="10" stroke-linecap="round" stroke-linejoin="round" />
        <path d="M42.3038 63.1419C42.3038 54.962 48.9349 48.3309 57.1148 48.3309C65.2947 48.3309 71.9258 54.962 71.9258 63.1419C71.9258 71.3218 65.2947 77.9529 57.1148 77.9529C48.9349 77.9529 42.3038 71.3218 42.3038 63.1419Z" stroke="currentColor" stroke-width="1.1827" stroke-miterlimit="10" stroke-linecap="round" stroke-linejoin="round" />
        <path d="M47.2726 63.1431C47.2726 57.7073 51.6792 53.3007 57.1151 53.3007C62.5509 53.3007 66.9575 57.7073 66.9575 63.1431C66.9575 68.579 62.5509 72.9856 57.1151 72.9856C51.6792 72.9856 47.2726 68.579 47.2726 63.1431Z" stroke="currentColor" stroke-width="1.1827" stroke-miterlimit="10" stroke-linecap="round" stroke-linejoin="round" />
        <path d="M91.3035 51.2215V47.308C91.3035 45.3589 89.7222 43.7776 87.7719 43.7776H29.5545C27.6042 43.7776 26.0229 45.3589 26.0229 47.308V51.2215" stroke="currentColor" stroke-width="1.1827" stroke-miterlimit="10" stroke-linecap="round" stroke-linejoin="round" />
        <path d="M48.1572 51.2214H26.0229V78.0404C26.0229 79.9895 27.6042 81.5708 29.5545 81.5708H87.7719C89.7222 81.5708 91.3035 79.9895 91.3035 78.0404V51.2214H66.2148" stroke="currentColor" stroke-width="1.1827" stroke-miterlimit="10" stroke-linecap="round" stroke-linejoin="round" />
        <path d="M87.0832 48.0246H79.4867C78.9711 48.0246 78.5488 47.6035 78.5488 47.0867C78.5488 46.571 78.9711 46.1488 79.4867 46.1488H87.0832C87.5989 46.1488 88.0211 46.571 88.0211 47.0867C88.0211 47.6035 87.5989 48.0246 87.0832 48.0246Z" stroke="currentColor" stroke-width="1.1827" stroke-miterlimit="10" stroke-linecap="round" stroke-linejoin="round" />
        <path d="M31.9388 78.0357H30.4379C29.7685 78.0357 29.2197 77.487 29.2197 76.8164C29.2197 76.1446 29.7685 75.5958 30.4379 75.5958H31.9388C32.6094 75.5958 33.1581 76.1446 33.1581 76.8164C33.1581 77.487 32.6094 78.0357 31.9388 78.0357Z" stroke="currentColor" stroke-width="1.1827" stroke-miterlimit="10" stroke-linecap="round" stroke-linejoin="round" />
        <path d="M70.7039 39.4121H47.3549C46.9221 39.4121 46.5708 39.0608 46.5708 38.6291V26.4307C46.5708 25.9979 46.9221 25.6466 47.3549 25.6466H70.7039C71.1367 25.6466 71.488 25.9979 71.488 26.4307V38.6291C71.488 39.0608 71.1367 39.4121 70.7039 39.4121Z" stroke="currentColor" stroke-width="1.1827" stroke-miterlimit="10" stroke-linecap="round" stroke-linejoin="round" />
        <path d="M65.8572 36.4104H52.2017C51.5773 36.4104 51.0723 35.9042 51.0723 35.281V29.779C51.0723 29.1546 51.5773 28.6495 52.2017 28.6495H65.8572C66.4805 28.6495 66.9867 29.1546 66.9867 29.779V35.281C66.9867 35.9042 66.4805 36.4104 65.8572 36.4104Z" stroke="currentColor" stroke-width="1.1827" stroke-miterlimit="10" stroke-linecap="round" stroke-linejoin="round" />
        <path d="M66.6875 43.0643C67.6845 42.6515 68.6023 42.0436 69.3805 41.2654L84.8396 25.8063" stroke="currentColor" stroke-width="1.1827" stroke-miterlimit="10" stroke-linecap="round" stroke-linejoin="round" />
        <path d="M70.6201 40.4932C70.6201 40.4932 78.4271 34.1503 86.9651 40.8184C86.9651 40.8184 78.1823 46.5912 70.6201 40.4932Z" stroke="currentColor" stroke-width="1.1827" stroke-miterlimit="10" stroke-linecap="round" stroke-linejoin="round" />
        <path d="M84.168 26.4024C84.168 26.4024 91.5504 19.5723 100.5 25.6786C100.5 25.6786 92.1063 32.0025 84.168 26.4024Z" stroke="currentColor" stroke-width="1.1827" stroke-miterlimit="10" stroke-linecap="round" stroke-linejoin="round" />
        <path d="M75.2444 34.3868C75.2444 34.3868 67.791 27.6336 73.0871 18.1826C73.0871 18.1826 80.1254 25.9873 75.2444 34.3868Z" stroke="currentColor" stroke-width="1.1827" stroke-miterlimit="10" stroke-linecap="round" stroke-linejoin="round" />
        <path d="M25.3331 72.7443C24.5998 72.4404 23.9269 71.9945 23.3544 71.4233L12.0005 60.0681" stroke="currentColor" stroke-width="0.863374" stroke-miterlimit="10" stroke-linecap="round" stroke-linejoin="round" />
        <path d="M22.4449 70.8567C22.4449 70.8567 16.7111 66.1992 10.4404 71.0956C10.4404 71.0956 16.8909 75.3356 22.4449 70.8567Z" stroke="currentColor" stroke-width="0.863374" stroke-miterlimit="10" stroke-linecap="round" stroke-linejoin="round" />
        <path d="M12.495 60.5081C12.495 60.5081 7.07228 55.491 0.5 59.9759C0.5 59.9759 6.66425 64.6215 12.495 60.5081Z" stroke="currentColor" stroke-width="0.863374" stroke-miterlimit="10" stroke-linecap="round" stroke-linejoin="round" />
        <path d="M19.0483 66.3719C19.0483 66.3719 24.523 61.4116 20.6331 54.4703C20.6331 54.4703 15.4635 60.2029 19.0483 66.3719Z" stroke="currentColor" stroke-width="0.863374" stroke-miterlimit="10" stroke-linecap="round" stroke-linejoin="round" />
      </g>
    </symbol>

    <symbol id="event" viewBox="0 0 100 100">
      <path d="M59.1124 88.8172H44.0933V35.7956L51.6023 22.0856L59.1124 35.7956V88.8172Z" stroke="currentColor" stroke-width="1.01956" stroke-miterlimit="10" />
      <path d="M51.6025 22.0846V11.1825" stroke="currentColor" stroke-width="1.01956" stroke-miterlimit="10" />
      <path d="M49.5068 15.4785H53.6982" stroke="currentColor" stroke-width="1.01956" stroke-miterlimit="10" />
      <path d="M53.6978 60.8273H49.5063V43.2544C49.5063 40.4098 50.1823 37.6018 51.4843 35.0368L51.6026 34.8044L51.7208 35.0368C53.0218 37.6018 53.6978 40.4098 53.6978 43.2544V60.8273Z" stroke="currentColor" stroke-width="1.01956" stroke-miterlimit="10" />
      <path d="M53.6978 88.8173H49.5063V83.6179C49.5063 80.7733 50.1823 77.9644 51.4843 75.4003L51.6026 75.167L51.7208 75.4003C53.0218 77.9644 53.6978 80.7733 53.6978 83.6179V88.8173Z" stroke="currentColor" stroke-width="1.01956" stroke-miterlimit="10" />
      <path d="M51.6026 72.3812C50.4454 72.3812 49.5063 71.4931 49.5063 70.3987V66.9871C49.5063 65.8926 50.4454 65.0055 51.6026 65.0055C52.7598 65.0055 53.6978 65.8926 53.6978 66.9871V70.3987C53.6978 71.4931 52.7598 72.3812 51.6026 72.3812Z" stroke="currentColor" stroke-width="1.01956" stroke-miterlimit="10" />
      <path d="M67.5596 73.4323V70.4652C67.5596 69.3698 66.6216 68.4827 65.4634 68.4827C64.3062 68.4827 63.3682 69.3698 63.3682 70.4652V73.4323H67.5596Z" stroke="currentColor" stroke-width="1.01956" stroke-miterlimit="10" />
      <path d="M64.3187 88.8174H59.1128V58.2209H59.9672C67.1898 58.2209 73.0451 63.7578 73.0451 70.5878V80.5642C73.0451 85.1223 69.1381 88.8174 64.3187 88.8174Z" stroke="currentColor" stroke-width="1.01956" stroke-miterlimit="10" />
      <path d="M35.6172 73.4323V70.4652C35.6172 69.3698 36.5552 68.4827 37.7134 68.4827C38.8706 68.4827 39.8086 69.3698 39.8086 70.4652V73.4323H35.6172Z" stroke="currentColor" stroke-width="1.01956" stroke-miterlimit="10" />
      <path d="M38.8587 88.8174H44.0646V58.2209H43.2092C35.9877 58.2209 30.1323 63.7578 30.1323 70.5878V80.5642C30.1323 85.1223 34.0393 88.8174 38.8587 88.8174Z" stroke="currentColor" stroke-width="1.01956" stroke-miterlimit="10" />
      <path d="M70.189 62.5419C70.7793 61.8611 71.2299 61.0713 71.5042 60.2112L76.967 43.1522" stroke="currentColor" stroke-width="1.01956" stroke-miterlimit="10" stroke-linecap="round" stroke-linejoin="round" />
      <path d="M72.1323 59.1793C72.1323 59.1793 75.4867 51.6174 84.6882 53.1265C84.6882 53.1265 80.3612 60.6546 72.1323 59.1793Z" stroke="currentColor" stroke-width="1.01956" stroke-miterlimit="10" stroke-linecap="round" stroke-linejoin="round" />
      <path d="M76.6987 43.8397C76.6987 43.8397 79.5321 36.0888 88.8172 37.0358C88.8172 37.0358 85.0102 44.8126 76.6987 43.8397Z" stroke="currentColor" stroke-width="1.01956" stroke-miterlimit="10" stroke-linecap="round" stroke-linejoin="round" />
      <path d="M73.1644 53.0119C73.1644 53.0119 64.7531 51.0236 64.9335 42.1927C64.9335 42.1927 73.4581 45.0962 73.1644 53.0119Z" stroke="currentColor" stroke-width="1.01956" stroke-miterlimit="10" stroke-linecap="round" stroke-linejoin="round" />
      <path d="M31.1328 84.67C30.5079 84.0211 30.0164 83.2554 29.6932 82.4117L23.2822 65.6622" stroke="currentColor" stroke-width="1.01956" stroke-miterlimit="10" stroke-linecap="round" stroke-linejoin="round" />
      <path d="M29.0108 81.4145C29.0108 81.4145 25.2446 74.0388 16.2153 76.0223C16.2153 76.0223 20.943 83.3151 29.0108 81.4145Z" stroke="currentColor" stroke-width="1.01956" stroke-miterlimit="10" stroke-linecap="round" stroke-linejoin="round" />
      <path d="M23.5886 66.3352C23.5886 66.3352 20.3271 58.7435 11.1826 60.1716C11.1826 60.1716 15.4097 67.7373 23.5886 66.3352Z" stroke="currentColor" stroke-width="1.01956" stroke-miterlimit="10" stroke-linecap="round" stroke-linejoin="round" />
    </symbol>

    <!-- ================= FAQ ================= -->
    <symbol id="plus" viewBox="0 0 24 24">
      <path d="M11.1483 12.852H5.70234C5.46184 12.852 5.25975 12.7696 5.09609 12.605C4.93242 12.4405 4.85059 12.2374 4.85059 11.9957C4.85059 11.7542 4.93242 11.5526 5.09609 11.391C5.25975 11.2293 5.46184 11.1485 5.70234 11.1485H11.1483V5.70248C11.1483 5.46248 11.2307 5.25956 11.3953 5.09373C11.5598 4.92773 11.7629 4.84473 12.0046 4.84473C12.2461 4.84473 12.4477 4.92773 12.6093 5.09373C12.771 5.25956 12.8518 5.46248 12.8518 5.70248V11.1485H18.2978C18.5378 11.1485 18.7408 11.2308 18.9066 11.3955C19.0726 11.56 19.1556 11.7631 19.1556 12.0047C19.1556 12.2462 19.0726 12.4478 18.9066 12.6095C18.7408 12.7711 18.5378 12.852 18.2978 12.852H12.8518V18.298C12.8518 18.5385 12.7695 18.7406 12.6048 18.9042C12.4403 19.0679 12.2373 19.1497 11.9956 19.1497C11.7541 19.1497 11.5525 19.0679 11.3908 18.9042C11.2292 18.7406 11.1483 18.5385 11.1483 18.298V12.852Z" fill="currentColor" />
    </symbol>

    <!-- ================= CONTACTS ================= -->
    <symbol id="email" viewBox="0 0 24 24">
      <path d="M3.05371 5.74219V18.9463H20.9463V6.13867L20.1709 6.64844L12.2148 11.8867C12.1545 11.9184 12.1021 11.944 12.0566 11.9619C12.0535 11.9629 12.0367 11.9678 12 11.9678C11.9627 11.9678 11.9461 11.9628 11.9434 11.9619C11.8977 11.9439 11.8449 11.9186 11.7842 11.8867L4.05371 6.7959V6.39648L11.7266 11.4219L12 11.6016L12.2734 11.4229L20.6201 5.97266L21.6309 5.31152C21.6465 5.38933 21.6553 5.46973 21.6553 5.55371V18.4463C21.6553 18.7675 21.543 19.041 21.2939 19.2891C21.0451 19.5371 20.7703 19.6494 20.4463 19.6494H3.55371C3.23199 19.6494 2.95881 19.5371 2.71094 19.2891L2.62402 19.1953C2.43636 18.9725 2.35059 18.7279 2.35059 18.4463V5.55371C2.3506 5.46519 2.35965 5.38047 2.37695 5.29883L3.05371 5.74219ZM3.55371 4.34473H20.4463C20.7697 4.34473 21.0439 4.4579 21.293 4.70703H21.2939C21.4036 4.81669 21.4851 4.93216 21.5439 5.05371H2.46094C2.51962 4.93172 2.60139 4.81595 2.71094 4.70605H2.71191C2.95988 4.45718 3.23264 4.34476 3.55371 4.34473Z" fill="currentColor" stroke="currentColor" />
    </symbol>

    <symbol id="tel" viewBox="0 0 24 24">
      <path d="M4.11914 3.34473H7.61914C7.80287 3.34474 7.9305 3.39945 8.03516 3.49805C8.12866 3.58614 8.20717 3.70059 8.26562 3.85156L8.31738 4.01465L8.98242 7.02832C9.01509 7.26011 9.00757 7.44511 8.97266 7.5918C8.94151 7.72276 8.87973 7.83104 8.78027 7.92578L8.77344 7.93164L6.25586 10.415L5.97656 10.6904L6.17676 11.0264C6.60349 11.7435 7.05697 12.416 7.53711 13.042C8.01993 13.6715 8.55611 14.2696 9.14453 14.8369C9.75791 15.4701 10.3991 16.0453 11.0684 16.5605C11.7435 17.0804 12.449 17.5353 13.1846 17.9248L13.5156 18.0996L13.7764 17.832L16.1816 15.3643L16.1914 15.3535C16.331 15.2021 16.4776 15.111 16.6338 15.0645C16.7648 15.0256 16.8946 15.012 17.0254 15.0215L17.1572 15.0391L19.9775 15.6631C20.1433 15.7092 20.2751 15.7806 20.3818 15.875L20.4814 15.9775C20.5982 16.1186 20.6553 16.2764 20.6553 16.4707V19.8809C20.6553 20.1178 20.5811 20.2895 20.4375 20.4316C20.2911 20.5766 20.1182 20.6494 19.8867 20.6494C18.0116 20.6494 16.0913 20.1991 14.1221 19.2842C12.1539 18.3698 10.323 17.0691 8.62988 15.376C7.04282 13.7889 5.79979 12.0798 4.89551 10.249L4.71875 9.88086C3.80172 7.90938 3.35059 5.99008 3.35059 4.11914C3.3506 3.94128 3.39186 3.79881 3.47363 3.67773L3.56934 3.56348C3.71339 3.41863 3.88514 3.34473 4.11914 3.34473ZM4.06641 4.5752C4.09734 5.28818 4.20935 6.0365 4.39941 6.81836C4.59098 7.60639 4.8907 8.47618 5.29492 9.4248L5.58398 10.1035L6.10742 9.58301L8.12695 7.5752L8.32031 7.38281L8.2627 7.11621L7.69434 4.44922L7.60938 4.05371H4.04395L4.06641 4.5752ZM19.9463 16.377L19.5479 16.2949L17.0625 15.7803L16.791 15.7246L16.5986 15.9248L14.6357 17.9824L14.1543 18.4863L14.7871 18.7812C15.482 19.1045 16.2354 19.3664 17.0449 19.5693C17.8556 19.7725 18.6478 19.8945 19.4209 19.9336L19.9463 19.96V16.377Z" fill="currentColor" stroke="currentColor" />
    </symbol>

    <symbol id="address" viewBox="0 0 24 24">
      <path d="M12 2.34473C14.0243 2.34473 15.803 3.04933 17.3555 4.47754C18.879 5.87913 19.6553 7.7626 19.6553 10.1826C19.6552 11.1679 19.4383 12.1526 18.9961 13.1406C18.5426 14.154 17.9735 15.1246 17.2881 16.0527C16.5967 16.9889 15.8459 17.8627 15.0352 18.6738C14.2121 19.4974 13.4448 20.2259 12.7334 20.8594L12.7275 20.8643L12.7227 20.8691C12.6321 20.9548 12.5276 21.017 12.4053 21.0566C12.2588 21.1041 12.1216 21.126 11.9922 21.126C11.8629 21.126 11.7293 21.104 11.5898 21.0576C11.4741 21.0191 11.376 20.959 11.29 20.875L11.2812 20.8662L11.2715 20.8584C10.5565 20.2252 9.78753 19.497 8.96484 18.6738C8.1541 17.8627 7.40327 16.9889 6.71191 16.0527C6.02666 15.1248 5.45823 14.1547 5.00684 13.1416C4.56647 12.1534 4.35064 11.1682 4.35059 10.1826C4.35059 7.76231 5.12671 5.8791 6.64844 4.47754C8.19877 3.04953 9.97573 2.34475 12 2.34473ZM12 3.05371C10.0648 3.05371 8.40993 3.72261 7.06836 5.05664C5.71878 6.39887 5.05371 8.12233 5.05371 10.1826C5.05382 11.6021 5.64762 13.1413 6.75195 14.7861C7.85681 16.4317 9.49748 18.2606 11.6592 20.2715L11.9961 20.585L12.3359 20.2764C14.5487 18.2689 16.2063 16.4381 17.2891 14.7852C18.3679 13.138 18.9462 11.5989 18.9463 10.1826C18.9463 8.12228 18.2813 6.39888 16.9316 5.05664V5.05566C15.5898 3.72177 13.9351 3.05375 12 3.05371ZM11.998 8.70215C12.3642 8.7022 12.662 8.82522 12.9189 9.08105C13.1751 9.33617 13.2979 9.63248 13.2979 9.99805C13.2978 10.3642 13.1749 10.6605 12.9199 10.915C12.6651 11.1694 12.3684 11.292 12.002 11.292C11.6349 11.2919 11.3392 11.169 11.085 10.916C10.8314 10.6634 10.7081 10.3691 10.708 10.0029C10.708 9.68146 10.8023 9.41279 10.9961 9.17871L11.085 9.08105C11.3379 8.82567 11.6325 8.70215 11.998 8.70215Z" fill="currentColor" stroke="currentColor" />
    </symbol>

    <!-- ================= FOOTER ================= -->
    <symbol id="fb" viewBox="0 0 24 24">
      <path d="M22 12.3038C22 6.74719 17.5229 2.24268 12 2.24268C6.47715 2.24268 2 6.74719 2 12.3038C2 17.3255 5.65684 21.4879 10.4375 22.2427V15.2121H7.89844V12.3038H10.4375V10.0872C10.4375 7.56564 11.9305 6.1728 14.2146 6.1728C15.3088 6.1728 16.4531 6.36931 16.4531 6.36931V8.84529H15.1922C13.95 8.84529 13.5625 9.6209 13.5625 10.4166V12.3038H16.3359L15.8926 15.2121H13.5625V22.2427C18.3432 21.4879 22 17.3257 22 12.3038Z" fill="currentColor" />
    </symbol>

    <symbol id="instagram" viewBox="0 0 24 24">
      <path d="M11.9988 4.62091C14.4032 4.62091 14.6878 4.63159 15.6332 4.67378C16.5123 4.71258 16.9864 4.85994 17.303 4.98311C17.7215 5.14509 18.0235 5.34194 18.3362 5.65465C18.6528 5.97129 18.8458 6.26994 19.0111 6.68838C19.1343 7.00503 19.2816 7.48253 19.3204 8.35822C19.3626 9.3076 19.3733 9.59218 19.3733 11.9932C19.3733 14.3942 19.3626 14.6821 19.3204 15.6281C19.2816 16.5072 19.1343 16.9813 19.0111 17.298C18.8491 17.7164 18.6528 18.0184 18.3396 18.3311C18.0229 18.6478 17.7243 18.8407 17.3064 19.0061C16.9898 19.1292 16.5117 19.2766 15.6366 19.3154C14.6872 19.3576 14.4026 19.3683 12.0016 19.3683C9.60062 19.3683 9.31266 19.3576 8.36666 19.3154C7.48759 19.2766 7.01346 19.1292 6.69682 19.0061C6.27838 18.8441 5.97635 18.6478 5.66308 18.3345C5.34644 18.0179 5.15353 17.7192 4.98817 17.3013C4.865 16.9847 4.71765 16.5066 4.67884 15.6315C4.63666 14.6821 4.62597 14.3975 4.62597 11.9965C4.62597 9.59556 4.63666 9.3076 4.67884 8.3616C4.71765 7.48253 4.865 7.0084 4.98817 6.69176C5.15015 6.27331 5.347 5.97129 5.65971 5.65802C5.97635 5.34137 6.275 5.14846 6.69344 4.98311C7.01009 4.85994 7.48759 4.71258 8.36328 4.67378C9.30872 4.63159 9.59387 4.62091 11.9982 4.62091H11.9988ZM11.9988 3.00056C9.55563 3.00056 9.25023 3.01125 8.29017 3.05343C7.33405 3.09561 6.67657 3.25028 6.1074 3.47187C5.51348 3.70359 5.01067 4.00955 4.5118 4.51236C4.00899 5.01179 3.70303 5.51404 3.47131 6.10459C3.24972 6.6777 3.09505 7.33123 3.05287 8.28736C3.01069 9.25079 3 9.55619 3 11.9994C3 14.4425 3.01069 14.7479 3.05287 15.708C3.09505 16.6641 3.24972 17.3216 3.47131 17.8908C3.70359 18.4847 4.00899 18.9875 4.5118 19.4864C5.01067 19.9852 5.51348 20.2951 6.10402 20.5235C6.67713 20.7451 7.33067 20.8997 8.28679 20.9419C9.24629 20.9841 9.55225 20.9948 11.9954 20.9948C14.4386 20.9948 14.7446 20.9841 15.7041 20.9419C16.6602 20.8997 17.3177 20.7451 17.8868 20.5235C18.4774 20.2951 18.9802 19.9858 19.4791 19.4864C19.9779 18.9869 20.2878 18.4847 20.5162 17.8941C20.7378 17.321 20.8924 16.6675 20.9346 15.7114C20.9768 14.7519 20.9875 14.4459 20.9875 12.0027C20.9875 9.55956 20.9768 9.25417 20.9346 8.29411C20.8924 7.33798 20.7378 6.68051 20.5162 6.11133C20.2946 5.51348 19.9886 5.01123 19.4864 4.5118C18.9875 4.01293 18.4847 3.70303 17.8941 3.47469C17.321 3.25309 16.6675 3.09842 15.7114 3.05624C14.7485 3.01069 14.4425 3 11.9994 3L11.9988 3.00056Z" fill="currentColor" />
      <path d="M11.9985 7.37695C9.44683 7.37695 7.37598 9.44724 7.37598 11.9995C7.37598 14.5518 9.44626 16.6221 11.9985 16.6221C14.5508 16.6221 16.6211 14.5518 16.6211 11.9995C16.6211 9.4478 14.5508 7.37695 11.9985 7.37695ZM11.9985 14.9978C10.3428 14.9978 9.00026 13.6553 9.00026 11.9995C9.00026 10.3437 10.3428 9.00124 11.9985 9.00124C13.6543 9.00124 14.9968 10.3437 14.9968 11.9995C14.9968 13.6553 13.6543 14.9978 11.9985 14.9978Z" fill="currentColor" />
      <path d="M17.8822 7.19404C17.8822 7.79021 17.3991 8.27333 16.8029 8.27333C16.2068 8.27333 15.7236 7.79021 15.7236 7.19404C15.7236 6.59787 16.2068 6.11475 16.8029 6.11475C17.3991 6.11475 17.8822 6.59787 17.8822 7.19404Z" fill="currentColor" />
    </symbol>

    <symbol id="x" viewBox="0 0 24 24">
      <path d="M17.1761 4.24268H19.9362L13.9061 11.0201L21 20.2427H15.4456L11.0951 14.6493L6.11723 20.2427H3.35544L9.80517 12.9935L3 4.24268H8.69545L12.6279 9.3553L17.1761 4.24268ZM16.2073 18.6181H17.7368L7.86441 5.78196H6.2232L16.2073 18.6181Z" fill="currentColor" />
    </symbol>

    <!-- ================= MODAL ================= -->
    <symbol id="close-icon" viewBox="0 0 24 24">
        <path d="M17.5996 5.925C17.7639 5.925 17.8659 5.97351 17.9463 6.05391C18.0265 6.13422 18.0751 6.2357 18.0752 6.39961C18.0752 6.56382 18.0266 6.6659 17.9463 6.74629L12.6924 12.0002L13.0459 12.3537L17.9463 17.2531C18.0267 17.3335 18.0752 17.4357 18.0752 17.5998C18.0752 17.7641 18.0267 17.8661 17.9463 17.9465C17.8659 18.0269 17.7639 18.0754 17.5996 18.0754C17.4355 18.0754 17.3333 18.0269 17.2529 17.9465L12.3535 13.0461L12 12.6926L6.74609 17.9465C6.66571 18.0268 6.56362 18.0754 6.39941 18.0754C6.23551 18.0753 6.13402 18.0267 6.05371 17.9465C5.97331 17.8661 5.9248 17.7641 5.9248 17.5998C5.92484 17.4357 5.97334 17.3335 6.05371 17.2531L11.3066 12.0002L10.9531 11.6467L6.05371 6.74629C5.97331 6.66589 5.9248 6.56388 5.9248 6.39961C5.92488 6.23557 5.97337 6.13425 6.05371 6.05391C6.13405 5.97357 6.23537 5.92508 6.39941 5.925C6.56368 5.925 6.66569 5.97351 6.74609 6.05391L11.6465 10.9533L12 11.3068L17.2529 6.05391C17.3333 5.97354 17.4355 5.92504 17.5996 5.925Z"
         fill="currentColor" stroke="currentColor" />
    </symbol>
  </defs>
</svg>